<?xml version="1.0" standalone="no"?>
<!DOCTYPE svg PUBLIC "-//W3C//DTD SVG 20010904//EN"
 "http://www.w3.org/TR/2001/REC-SVG-20010904/DTD/svg10.dtd">
<svg version="1.0" xmlns="http://www.w3.org/2000/svg"
 width="880.000000pt" height="1006.000000pt" viewBox="0 0 880.000000 1006.000000"
 preserveAspectRatio="xMidYMid meet">
<metadata>
Created by potrace 1.16, written by Peter Selinger 2001-2019
</metadata>
<g transform="translate(0.000000,1006.000000) scale(0.100000,-0.100000)" stroke="none">
<path d="M8145 9534 c-409 -203 -877 -404 -1144 -494 -183 -61 -329 -94 -691
-155 -584 -99 -854 -189 -1135 -378 -1129 -762 -2201 -1930 -3091 -3368 -252
-407 -521 -902 -734 -1349 -65 -135 -156 -315 -204 -400 -367 -653 -613 -1332
-712 -1959 -31 -199 -31 -209 1 -217 14 -3 33 -3 42 1 10 5 43 7 73 6 111 -5
401 57 505 108 33 17 114 73 180 126 202 163 259 197 359 216 95 17 210 -20
348 -111 36 -24 162 -143 293 -274 293 -295 377 -353 569 -393 104 -21 181
-11 284 37 93 43 155 92 322 255 80 78 179 168 220 202 93 74 170 157 331 348
68 82 148 175 178 208 79 85 205 182 295 227 120 61 172 54 209 -28 17 -39 20
-65 19 -157 -1 -60 -8 -163 -15 -228 -16 -138 -8 -215 28 -294 28 -62 110
-152 169 -187 87 -51 203 -69 291 -45 62 17 425 197 825 409 502 267 842 428
1049 499 102 35 151 21 342 -98 124 -78 198 -106 252 -96 76 14 157 121 157
205 0 90 -77 174 -225 245 -147 71 -247 96 -409 102 -153 6 -230 -3 -361 -44
-191 -60 -349 -152 -653 -380 -330 -249 -466 -333 -633 -394 -150 -55 -335
-75 -434 -48 -55 15 -120 82 -135 139 -17 62 -15 197 5 375 27 229 13 333 -57
436 -48 71 -89 94 -162 92 -119 -2 -293 -79 -444 -195 -31 -24 -145 -129 -254
-235 -109 -106 -221 -211 -248 -234 -28 -23 -103 -103 -167 -178 -283 -326
-346 -388 -468 -456 -161 -91 -332 -104 -469 -36 -91 45 -171 119 -314 291
-154 186 -243 270 -347 329 -216 124 -440 148 -611 67 -137 -65 -433 -292
-686 -528 -60 -55 -108 -97 -108 -94 0 3 87 175 194 383 107 208 210 421 229
473 19 52 49 132 66 176 l31 81 113 7 c310 20 570 71 929 183 152 48 157 51
139 97 -6 16 -19 18 -146 17 -77 -1 -214 6 -305 15 -183 18 -404 14 -522 -9
-38 -8 -68 -10 -68 -6 0 5 7 24 17 43 12 26 29 40 66 56 130 56 743 155 1732
280 132 16 254 32 272 35 27 5 57 37 207 223 96 119 220 271 275 337 56 66
101 125 101 131 0 38 -89 60 -348 85 -67 7 -120 15 -116 18 3 3 134 8 291 11
l285 5 56 65 c241 276 459 509 721 771 410 410 670 630 956 810 66 42 219 138
340 214 452 285 1366 887 2013 1327 l292 199 0 90 c0 133 -17 346 -55 689 -61
541 -68 808 -31 1083 13 89 51 272 72 340 3 9 2 17 -3 16 -4 0 -111 -52 -238
-115z m110 -159 c-23 -135 -35 -291 -35 -455 0 -189 10 -317 55 -725 32 -293
55 -572 55 -677 l0 -47 -132 -92 c-232 -159 -1463 -978 -1738 -1156 -146 -94
-395 -253 -555 -353 -326 -204 -394 -252 -572 -397 -195 -160 -277 -235 -594
-552 -269 -270 -446 -458 -664 -706 -43 -49 -86 -93 -94 -97 -9 -4 -119 -7
-246 -7 -335 -2 -485 -21 -545 -72 -24 -20 -24 -21 -5 -35 33 -24 82 -33 330
-60 132 -14 252 -29 266 -32 26 -7 25 -9 -73 -127 -55 -66 -161 -196 -236
-290 -74 -93 -141 -175 -149 -181 -7 -6 -41 -14 -76 -18 -512 -55 -1600 -216
-1820 -270 -53 -13 -97 -21 -97 -18 0 19 207 386 333 592 768 1250 2031 2607
3316 3564 442 329 737 508 1276 776 220 109 454 229 520 266 276 155 572 362
820 575 136 117 483 461 595 591 41 48 75 86 77 85 1 -2 -4 -39 -12 -82z
m-235 11 c0 -7 -316 -256 -533 -419 -571 -431 -905 -630 -1292 -772 -264 -96
-360 -142 -583 -272 -1322 -773 -2913 -2252 -3875 -3603 -60 -85 -115 -159
-120 -165 -15 -15 132 266 235 450 917 1632 2115 3002 3348 3831 169 114 257
157 443 220 223 76 354 106 715 165 302 49 453 83 642 144 226 74 647 248 915
379 89 44 105 50 105 42z m-4046 -2850 c20 -24 36 -47 36 -51 0 -4 -53 -57
-117 -118 -179 -168 -693 -685 -834 -837 -1030 -1120 -1755 -2227 -2125 -3249
-36 -98 -417 -848 -422 -831 -5 15 45 260 89 430 349 1363 1406 2930 2934
4349 184 171 386 350 396 351 4 0 23 -20 43 -44z m-2141 -3773 c98 -9 172 -20
165 -24 -25 -14 -289 -77 -408 -98 -181 -32 -450 -57 -450 -42 0 5 12 37 26
70 29 66 25 64 184 90 153 25 256 26 483 4z"/>
</g>
</svg>
