<?xml version="1.0" standalone="no"?>
<!DOCTYPE svg PUBLIC "-//W3C//DTD SVG 20010904//EN"
 "http://www.w3.org/TR/2001/REC-SVG-20010904/DTD/svg10.dtd">
<svg version="1.0" xmlns="http://www.w3.org/2000/svg"
 width="236.000000pt" height="399.000000pt" viewBox="0 0 236.000000 399.000000"
 preserveAspectRatio="xMidYMid meet">
<metadata>
Created by potrace 1.16, written by Peter Selinger 2001-2019
</metadata>
<g transform="translate(0.000000,399.000000) scale(0.100000,-0.100000)" stroke="none">
<path d="M106 3969 c-9 -13 -16 -37 -16 -54 -1 -25 -2 -27 -11 -12 -14 25 -29
12 -29 -26 -1 -29 -2 -30 -14 -14 -12 16 -14 15 -26 -12 -13 -34 -6 -99 15
-127 11 -15 15 -16 28 -5 14 11 15 9 5 -16 -9 -23 -7 -40 8 -83 16 -45 26 -58
57 -73 26 -13 37 -25 37 -41 0 -30 27 -66 50 -66 11 0 27 11 36 25 20 30 13
67 -22 108 -20 24 -24 39 -24 97 0 64 2 70 40 116 31 37 38 53 34 73 -15 65
-63 116 -120 127 -26 5 -35 2 -48 -17z"/>
<path d="M280 3430 c-14 -4 -46 -8 -72 -9 -46 -1 -68 -13 -88 -51 -11 -21 39
-144 64 -153 8 -3 51 12 95 34 77 38 80 40 71 65 -6 14 -10 42 -10 63 0 20 -5
42 -12 49 -13 13 -13 13 -48 2z"/>
<path d="M375 3334 c34 -90 93 -221 120 -264 11 -19 31 -61 43 -92 28 -76 82
-160 121 -187 36 -26 43 -10 10 23 -44 43 -179 292 -221 406 -43 119 -74 180
-89 180 -5 0 2 -30 16 -66z"/>
<path d="M320 3246 c-48 -15 -120 -63 -120 -80 0 -39 14 -77 26 -72 10 4 14
-15 16 -87 3 -91 3 -92 18 -58 l15 33 28 -70 c15 -38 27 -75 27 -82 0 -8 6
-21 14 -29 14 -17 68 -221 57 -221 -3 0 -18 20 -34 44 -15 24 -44 63 -66 87
-21 24 -44 55 -51 69 -24 45 -93 314 -94 368 -1 57 -10 66 -28 27 -9 -21 -8
-32 5 -61 10 -19 26 -72 36 -117 51 -217 56 -227 160 -357 70 -87 112 -161 94
-167 -13 -5 22 -117 62 -198 14 -27 28 -71 31 -98 7 -46 6 -49 -46 -108 -42
-48 -57 -76 -71 -128 -13 -46 -28 -74 -48 -93 -56 -51 -67 -105 -30 -152 18
-22 20 -36 15 -73 -3 -24 -13 -57 -22 -73 -33 -55 8 -120 76 -120 33 0 40 -3
40 -20 0 -10 -10 -24 -21 -31 -34 -18 -86 -73 -119 -127 -27 -45 -29 -53 -21
-97 10 -53 22 -65 66 -65 24 0 42 13 92 69 70 78 111 101 177 101 39 0 48 -4
55 -22 10 -26 5 -43 -21 -77 -22 -29 -23 -60 -3 -87 8 -10 15 -34 15 -52 0
-18 5 -40 10 -50 20 -34 63 -262 61 -320 -1 -19 -6 -43 -13 -55 -6 -12 -11
-35 -10 -51 0 -17 -10 -59 -24 -93 -15 -37 -23 -71 -19 -83 25 -80 17 -225
-16 -267 -7 -10 -2 -8 13 5 26 24 42 80 38 137 -7 104 16 287 47 372 13 35 13
53 3 115 -7 40 -18 87 -25 105 -8 17 -17 57 -20 87 -4 31 -11 59 -16 62 -5 3
-9 21 -9 39 0 19 -7 50 -16 69 -16 33 -16 36 5 69 22 36 27 72 12 96 -19 30
-201 23 -201 -9 0 -17 -130 -140 -148 -140 -32 0 -43 59 -22 115 11 28 111
147 118 140 3 -2 -5 -22 -17 -45 -19 -36 -30 -130 -16 -130 18 0 55 36 64 60
20 59 126 90 196 58 32 -15 46 -2 47 42 1 32 -19 59 -55 74 -8 3 -7 9 6 20 12
9 18 25 16 44 -2 16 3 37 11 47 8 10 20 30 27 44 l11 26 1 -30 c2 -40 11 -75
21 -75 5 0 10 30 13 68 8 107 31 210 70 311 21 51 37 101 37 111 0 10 -12 26
-27 36 -39 24 -52 44 -53 77 0 23 -4 27 -29 27 -17 0 -33 5 -36 10 -12 19 -37
10 -76 -25 -22 -20 -50 -35 -63 -35 -16 0 -38 -15 -65 -46 -40 -46 -54 -76
-66 -147 -3 -22 -16 -47 -31 -59 -19 -17 -24 -31 -24 -65 0 -54 53 -187 82
-208 19 -12 20 -17 8 -44 -17 -43 -33 -52 -86 -54 -43 -2 -48 0 -54 24 -5 19
-1 41 12 70 36 78 43 149 14 149 -21 0 -39 45 -31 78 4 21 13 32 28 34 17 2
26 16 40 63 28 92 51 135 106 199 65 76 88 147 73 221 -39 186 -34 246 31 351
42 67 47 108 17 124 -33 18 -56 3 -80 -53 -31 -71 -38 -209 -17 -309 25 -114
30 -150 29 -197 -2 -53 -22 -83 -22 -33 0 18 -7 49 -16 70 -26 60 -56 162 -51
175 2 7 9 -5 16 -25 7 -21 17 -38 22 -38 12 0 12 4 -13 95 -23 85 -26 162 -7
252 8 41 20 63 54 97 31 32 39 46 29 50 -8 3 -14 14 -14 24 0 11 -7 25 -15 32
-8 7 -15 29 -15 50 0 42 -29 102 -89 181 -22 30 -41 61 -41 70 0 9 -8 23 -17
31 -15 12 -25 13 -53 4z"/>
<path d="M1132 2794 c-29 -7 -65 -20 -81 -29 -55 -28 -131 -144 -131 -198 0
-18 -7 -43 -16 -55 -16 -24 -12 -42 11 -42 21 0 36 -66 23 -95 -9 -19 -7 -30
6 -49 9 -14 16 -34 16 -45 0 -11 11 -36 24 -55 l24 -36 12 33 c7 17 18 46 25
62 7 17 16 54 20 83 4 28 10 52 15 52 4 0 46 -18 93 -40 47 -22 94 -40 105
-40 13 0 36 18 59 45 57 68 71 60 93 -53 20 -100 32 -91 46 37 6 51 4 62 -6
56 -10 -6 -12 3 -7 44 6 51 1 71 -37 151 -6 14 -17 26 -24 26 -7 1 -16 2 -21
3 -5 0 -21 14 -36 29 -21 23 -35 28 -80 30 -44 2 -56 -1 -64 -17 -6 -10 -24
-24 -40 -29 -24 -8 -36 -7 -65 9 -32 17 -37 17 -42 4 -4 -9 -21 -22 -40 -30
-19 -8 -40 -28 -50 -47 -14 -26 -19 -29 -22 -15 -6 29 76 128 128 155 34 17
61 22 121 22 70 0 83 -3 128 -32 28 -17 54 -28 58 -24 11 10 -49 67 -92 87
-47 22 -81 23 -153 3z"/>
<path d="M651 2657 c-57 -91 -66 -120 -66 -222 0 -58 6 -116 14 -139 13 -37
14 -38 28 -20 8 10 26 42 40 69 14 28 46 71 71 98 39 39 45 50 36 65 -6 9 -19
19 -29 21 -30 5 -44 26 -56 83 -14 65 -21 74 -38 45z"/>
<path d="M1350 2221 c-50 -26 -113 -33 -182 -21 -69 13 -82 8 -41 -14 25 -14
26 -15 6 -16 -12 0 -33 4 -47 10 -32 12 -34 -2 -3 -23 16 -10 26 -32 35 -73 6
-31 10 -59 8 -62 -12 -12 -49 15 -83 59 l-38 50 -26 -32 c-20 -25 -34 -33 -62
-33 -35 -1 -36 -1 -46 -59 -15 -83 6 -130 48 -108 36 20 51 42 51 77 0 40 12
44 29 8 9 -20 8 -42 -5 -105 -17 -87 -10 -192 22 -300 20 -69 26 -75 58 -53
39 25 59 70 68 149 4 39 10 95 13 125 7 51 5 59 -20 88 -15 18 -24 32 -20 32
11 0 84 -40 89 -49 4 -5 -5 -36 -19 -67 l-26 -58 31 -24 c37 -29 39 -60 5 -92
-26 -24 -31 -45 -17 -68 6 -9 18 1 41 34 30 41 33 50 27 94 -6 44 -4 48 16 54
13 3 35 6 49 6 15 0 33 8 40 17 10 12 11 15 1 9 -7 -4 -38 -11 -70 -16 -31 -4
-66 -12 -77 -16 -15 -5 -17 -4 -10 4 6 7 32 16 58 21 33 6 67 23 108 55 56 44
59 45 59 22 0 -13 9 -43 20 -67 11 -24 20 -49 20 -54 0 -6 -34 -21 -74 -34
-73 -22 -75 -24 -92 -67 -9 -24 -14 -47 -11 -50 9 -9 66 25 82 49 18 27 91 71
105 62 5 -3 6 -13 3 -23 -12 -35 -47 -61 -119 -88 -72 -28 -97 -54 -51 -54 40
0 130 31 163 56 l32 25 21 -27 c12 -15 20 -32 18 -38 -2 -6 -28 -18 -59 -27
-31 -9 -71 -28 -89 -42 -35 -25 -132 -77 -146 -77 -4 0 -17 19 -28 43 l-19 42
-4 -43 -3 -44 -40 7 c-21 4 -39 4 -39 0 0 -11 40 -67 76 -105 32 -35 53 -93
37 -103 -5 -3 -44 3 -88 13 -92 22 -98 23 -91 11 3 -4 27 -16 53 -26 79 -30
163 -85 163 -106 0 -40 143 -295 207 -369 34 -39 143 -219 143 -236 0 -15 -22
12 -50 61 -35 61 -120 169 -127 162 -2 -3 7 -42 21 -86 l25 -82 -31 -34 c-18
-21 -39 -35 -53 -35 -12 0 -58 23 -101 51 -87 57 -133 79 -164 79 l-21 0 21
-30 c24 -33 17 -38 -20 -14 -48 32 -50 42 -19 74 26 25 42 79 21 66 -5 -3 -35
-9 -66 -14 -48 -8 -56 -7 -52 5 4 8 6 17 6 19 0 2 20 4 45 4 25 0 45 3 45 6 0
3 -11 15 -25 26 -14 11 -25 23 -25 28 0 10 130 73 200 96 l55 19 -45 6 -45 6
33 14 c17 7 32 17 32 21 0 4 -19 12 -42 18 -24 6 -47 12 -53 14 -5 2 9 9 33
15 60 17 53 40 -20 66 -59 21 -91 42 -48 32 100 -24 131 -19 92 16 -28 25
-185 82 -190 69 -2 -7 -12 -12 -23 -12 -25 0 -24 -15 3 -42 l21 -21 -34 7
c-19 4 -52 10 -74 13 l-40 6 20 -22 c10 -12 46 -40 80 -63 64 -43 63 -43 -34
-21 -71 17 63 -74 149 -101 24 -8 24 -8 -10 -16 -19 -5 -79 -6 -132 -2 -89 7
-97 6 -93 -9 4 -12 -3 -20 -27 -28 l-33 -12 34 -21 c31 -20 32 -23 16 -32 -44
-26 -74 -59 -80 -87 -11 -47 1 -46 46 5 52 58 89 79 121 67 l23 -10 -22 0
c-28 -1 -29 -12 -3 -29 33 -20 23 -37 -40 -66 -65 -30 -71 -45 -24 -59 53 -16
73 -29 82 -56 21 -59 165 -191 225 -206 31 -8 33 -5 11 37 l-16 31 29 -21 c15
-11 36 -29 46 -40 18 -20 18 -21 -2 -32 -34 -18 -28 -66 12 -90 29 -18 30 -20
9 -20 -13 0 -36 -8 -50 -19 -15 -10 -37 -22 -50 -25 l-23 -8 21 -34 c12 -19
19 -34 16 -34 -4 0 -35 24 -71 54 -75 65 -86 71 -178 102 -93 32 -115 30 -50
-4 63 -33 122 -84 104 -90 -7 -2 -32 1 -56 7 -48 12 -126 14 -173 5 -30 -6
-30 -7 -16 -29 9 -14 29 -25 54 -29 24 -4 40 -12 40 -20 0 -22 45 -28 195 -25
138 3 141 3 183 -25 37 -23 43 -24 38 -9 -5 17 0 18 67 15 l72 -4 91 71 c104
80 146 125 138 146 -4 8 -2 15 4 15 11 0 62 -96 62 -117 0 -40 49 -103 80
-103 20 0 18 81 -5 145 -5 14 1 11 19 -10 37 -43 32 -13 -9 63 -20 35 -34 66
-32 68 2 2 20 -19 41 -46 48 -63 68 -66 25 -3 -18 25 -41 69 -51 97 -29 77
-57 118 -77 112 -12 -4 -22 9 -41 61 -14 36 -39 90 -57 120 -18 29 -29 53 -24
53 5 0 25 -29 46 -64 41 -71 105 -140 105 -114 0 8 -13 33 -28 54 -42 58 -51
78 -62 134 -6 32 -6 59 0 75 5 14 7 39 3 56 l-6 32 -17 -23 c-15 -20 -18 -21
-24 -5 -5 15 -8 15 -25 -6 -22 -27 -41 -21 -73 22 -15 20 -16 30 -8 58 12 42
-8 71 -48 71 -19 0 -23 4 -19 20 4 15 -1 22 -19 26 -32 8 -31 24 2 24 17 0 46
18 85 52 32 28 62 48 65 45 11 -11 -37 -117 -62 -136 -25 -20 -22 -31 8 -31
17 0 18 -6 12 -48 -4 -35 -2 -51 8 -59 11 -10 18 -5 32 22 27 50 66 58 66 14
0 -21 15 -25 26 -7 5 7 9 50 10 96 1 45 4 85 7 89 12 11 37 -7 37 -27 0 -11 6
-23 14 -26 12 -4 10 -15 -10 -59 l-23 -54 19 -43 c10 -24 33 -54 50 -66 17
-13 38 -39 47 -58 9 -19 20 -34 24 -34 13 0 -9 61 -36 101 -13 21 -21 40 -17
43 20 12 118 -194 147 -307 11 -41 24 -71 35 -77 10 -5 34 -32 54 -60 34 -48
39 -51 69 -45 45 10 50 18 42 66 -7 39 -9 41 -21 24 -8 -10 -14 -27 -14 -37 0
-10 -7 -18 -15 -18 -20 0 -19 7 7 57 22 41 22 43 5 60 -15 16 -19 16 -27 3 -7
-10 -10 -11 -10 -2 0 23 -16 12 -33 -24 -29 -59 -49 -24 -25 42 10 29 9 36 -8
55 -10 11 -31 27 -45 35 -25 12 -49 58 -49 90 0 11 5 11 24 3 18 -9 31 -8 52
2 41 20 42 39 3 39 l-33 0 29 30 c21 22 24 30 13 30 -9 0 -28 -17 -44 -37 -35
-46 -44 -28 -9 22 31 46 33 69 5 60 -24 -8 -25 -2 -4 31 20 30 13 40 -16 24
-31 -17 -34 -7 -15 44 l17 44 -56 71 c-31 38 -71 81 -89 95 -36 28 -115 61
-123 53 -3 -3 -1 -28 5 -55 12 -56 1 -112 -26 -133 -15 -12 -16 -12 -9 6 23
55 18 165 -6 165 -6 0 -8 -3 -5 -6 8 -8 -11 -44 -23 -44 -5 0 -7 7 -4 15 4 8
4 15 1 15 -2 0 -43 -29 -90 -64 -106 -79 -112 -81 -126 -49 -9 20 -9 30 4 49
20 30 19 39 -6 91 -25 52 -37 51 -15 0 11 -28 12 -39 2 -52 -11 -15 -13 -15
-28 2 -24 27 -40 94 -26 110 8 10 7 13 -5 13 -8 0 -17 12 -20 26 -4 21 0 28
22 35 15 5 43 18 62 29 55 30 101 51 105 48 2 -2 -12 -21 -31 -43 -19 -21 -35
-47 -35 -57 0 -10 0 -21 -1 -25 -1 -25 101 -3 132 28 27 27 73 22 77 -8 3 -18
10 -23 31 -23 35 0 62 -26 37 -36 -26 -10 -19 -24 12 -24 15 0 44 -11 62 -25
25 -18 42 -24 61 -20 16 4 54 -5 102 -24 86 -33 92 -29 57 38 -30 59 -66 97
-128 135 -60 37 -90 70 -135 149 -15 26 -32 47 -37 47 -6 0 -13 -19 -16 -42
-8 -49 -61 -112 -112 -134 -49 -20 -55 -18 -48 14 4 15 7 35 7 45 0 10 18 29
39 43 48 32 53 44 44 114 -5 39 -15 64 -34 87 -16 17 -31 46 -35 65 -4 18 -21
58 -37 89 l-30 56 20 44 c23 49 40 179 25 179 -6 0 -13 -28 -15 -63 -4 -40
-15 -83 -34 -121 -43 -88 -121 -145 -138 -101 -5 15 31 48 45 39 4 -2 10 0 13
5 3 5 -9 15 -27 22 l-32 13 29 4 c66 9 97 59 60 96 -19 20 -16 20 -58 -1 -29
-13 -38 -14 -51 -3 -19 16 -19 41 0 66 14 18 14 17 15 -15 0 -28 3 -32 12 -23
7 7 13 34 13 60 0 46 0 47 39 53 27 4 49 17 68 38 30 34 39 63 13 41 -10 -9
-15 -9 -15 -1 0 15 -9 13 -50 -8z"/>
<path d="M1516 2045 c8 -21 37 -35 71 -35 58 0 161 -51 186 -92 8 -13 38 -61
66 -106 l53 -84 0 -106 c0 -65 6 -120 14 -139 7 -18 14 -33 16 -33 2 0 4 61 5
136 3 153 1 159 -73 249 -24 31 -49 66 -54 79 -13 35 -156 128 -185 120 -12
-3 -37 1 -53 10 -39 20 -53 20 -46 1z"/>
<path d="M1482 1868 c3 -7 26 -21 51 -30 40 -15 47 -16 47 -3 0 20 9 19 48 -5
18 -11 50 -20 70 -20 28 0 45 -7 61 -24 l23 -25 -35 -35 c-34 -34 -57 -87 -57
-131 0 -16 8 -12 40 23 21 23 44 42 49 42 10 0 31 -61 31 -88 0 -30 43 -152
57 -164 14 -11 15 -9 9 22 -4 19 -9 80 -12 135 -3 55 -7 110 -9 121 -7 33
-106 132 -140 140 -16 4 -62 17 -102 30 -79 27 -137 32 -131 12z"/>
<path d="M2184 840 c-29 -11 -54 -49 -54 -80 0 -14 9 -40 21 -59 14 -23 19
-46 17 -75 l-3 -41 -42 2 c-35 1 -43 -1 -43 -16 0 -9 11 -27 25 -39 17 -14 25
-32 25 -53 0 -65 41 -99 89 -75 31 16 41 34 41 72 0 22 3 23 20 14 28 -15 26
5 -5 46 -14 18 -25 36 -25 40 0 4 11 -3 25 -16 32 -30 32 -15 0 32 -26 39 -25
57 11 131 17 35 17 39 1 72 -9 20 -28 40 -43 45 -29 12 -32 12 -60 0z"/>
<path d="M2323 463 c2 -84 -6 -92 -93 -95 -19 -1 -40 -8 -46 -16 -6 -9 -20
-13 -31 -10 -18 5 -21 0 -26 -45 -4 -47 -2 -54 24 -78 24 -23 29 -35 29 -77 0
-32 5 -54 15 -62 26 -22 42 -4 48 54 7 74 21 114 75 223 43 85 45 93 32 117
-19 36 -28 32 -27 -11z"/>
</g>
</svg>
