<?xml version="1.0" encoding="UTF-8" standalone="no"?>
<svg
   xmlns:dc="http://purl.org/dc/elements/1.1/"
   xmlns:cc="http://creativecommons.org/ns#"
   xmlns:rdf="http://www.w3.org/1999/02/22-rdf-syntax-ns#"
   xmlns:svg="http://www.w3.org/2000/svg"
   xmlns="http://www.w3.org/2000/svg"
   viewBox="0 0 816 1056"
   height="1056"
   width="816"
   xml:space="preserve"
   id="svg2"
   version="1.1"><metadata
     id="metadata8"><rdf:RDF><cc:Work
         rdf:about=""><dc:format>image/svg+xml</dc:format><dc:type
           rdf:resource="http://purl.org/dc/dcmitype/StillImage" /></cc:Work></rdf:RDF></metadata><defs
     id="defs6" /><g
     transform="matrix(1.3333333,0,0,-1.3333333,0,1056)"
     id="g10"><g
       transform="scale(1,-1)"
       id="g12"><path
         id="path14"
         style="fill:#231f20;fill-opacity:1;fill-rule:nonzero;stroke:none"
         d="m 123.63623,-250.71484 c 0,0 2,-22 2,-22 0,0 2.75,-8.25 8.5,-10.5 5.36523,-1.86719 9.42481,-6.12696 10.95947,-9.73633 0.10987,-0.25781 0.20703,-0.51367 0.29053,-0.76367 1.25,-3.75 1.5,-17.75 4.25,-17.25 0,0 2,-3.25 4.5,-6.25 0,0 2.75,-3 4.25,-15.75 0,0 -2,-0.75 -2,-0.75 0,0 0.30762,-4.15039 0.56055,-6.30469 0.0698,-0.5918 0.13525,-1.0332 0.18945,-1.19531 0.25,-0.75 2.25,-2.5 7,-5 0,0 1.25,-7 0.25,-8.75 0,0 -4.25,-8.5 -8,-9 0,0 -2.5,0.25 -3.75,3.25 0,0 -2.75,-1.5 -5.5,21.25 0,0 -1.5,1.5 -2.25,0.5 0,0 -1.75,-14.25 0.25,-19.75 0,0 2.25,-5.75 12.5,-13.25 0,0 1.25,-8.75 0,-9.75 0,0 -2.25,-1 -3.5,1 0,0 -6.75,8 -6.75,8 0,0 -2,1 -2,1 0,0 -0.5,4.5 -0.5,4.5 0,0 -1,3.5 -4,6.5 0,0 -6.25,8.5 -6.5,10.5 0,0 -1.75,-0.75 -1.75,-0.75 0,0 0,-5.5 0,-5.5 0,0 4.5,-7.75 7,-9.25 0,0 1.75,-3.75 0.5,-5.25 0,0 2.5,-2.25 2.5,-2.25 0,0 2.75,-5.25 5.75,-6.75 0,0 6.5,-4 6.75,-6 0,0 3.5,-5.5 3.5,-15.75049 0,0 2,-4.75 5.25,-6.75 0,0 1.25,-3.75 0.75,-8 0,0 -0.25,-2 2,-1.75 0,0 0,-7.75 0,-7.75 0,0 3.25,-7.5 9,-8.25 0,0 4,0 4.5,-3.75 0,0 1.75,-1.5 3.25,-2 0,0 2.25,-7.25 5,-8.5 0,0 0.25,-4.75 0.25,-4.75 0,0 -3.5,-0.5 -3.5,-0.5 0,0 0.75,-4 2,-4.75 0,0 1.53516,-1.70557 1.92822,-3.56738 0.083,-0.39258 0.11524,-0.79102 0.0718,-1.18262 -0.25,-2.25 3,-2.25 8.25,-4.25 0,0 1.25,-7.5 2.75,-8 0,0 5.75,-4 5.5,-5.5 0,0 0.5,-5.25 1.25,-6.5 0,0 4.75,-1 6.25,0.25 0,0 6.5,0.75 5.75,-1.25 0,0 1,-6.5 -0.75,-6.5 0,0 -1.5,-3.5 1,-5.5 0,0 7.5,-0.75 7,-2.75 0,0 1,-7 1,-7 0,0 13,-51 56.5,-50.25 0,0 12,-2.75 32.75049,7.25 0,0 5,1.5 5.5,0.25 0,0 27,-43.25 47.25,-44.75 0,0 20.5,-7.5 54.75,8.25 0,0 48.25,23.25 62.25,87.75 0,0 6,26.25 -11.5,46.5 0,0 -32.25,35 -40.25,42 0,0 -1.25,-1 -0.5,9 0,0 8.5,48.25049 -14.5,80.25049 0,0 -2,4.5 1.5,7.25 0,0 6.25,1.25 6.25,10.75 0,0 5.25,4.5 10,9.25 0,0 1.75,2.25 1,10.75 0,0 2,5.25 7.5,9.5 0,0 2.25,1.75 3.75,13 0,0 1.25,6.5 7.25,8 0,0 8.25,2.25 10.5,10 0,0 -3,2 -4,0.5 0,0 -1.5,-3.5 -5.5,-3.5 0,0 -5.25,0 -11,-3.75 0,0 -8,-7.5 -16,5.25 0,0 -1,1.75 -3.5,2.75 0,0 -3,3.25 -3.5,6.25 0,0 -0.75,3.5 -6.25,7 0,0 -4.75,2.5 -6,8.25 0,0 -1.25,5.25 -5.25,7.25 0,0 -6,0.25 -7.75,13.25 0,0 -3.25,4.5 -3.75,2.25 0,0 0,-5 -2.5,-5.75 0,0 -1,-7.5 -0.5,-10 0,0 -0.5,-3.5 -5.75,-3.75 0,0 -5.75,-4.25 -5.75,-8.75 0,0 -1.5,-2.5 -2.75,1.25 0,0 -2,6.75 -6.75,9 0,0 -3.75,2.75 -3.75,7 0,0 -2.25,5.25 -6,7.75 0,0 -3.75,0.75 -3.75,4.25 0,0 -3.25,1.75 -3,-0.25 0,0 -1,-4 0.75,-5.5 0,0 2,-3.25 0,-7 0,0 -4.75,-3 -5.5,-11 0,0 0.75,-4 -3.75,-1.25 0,0 -2.25,1.5 -3,4 0,0 -2.75,4.5 -7,6.5 0,0 -3.25,2.25 -3.75,6.5 0,0 -3.75,6.25 -6,6.25 0,0 -1,0.5 -2.5,1.75 0,0 -3.25,1 -2.5,-3.75 0,0 1.07422,-5.68946 1.75,-4 0.5,1.25 0,-4.75 1.5,-5.5 0,0 0,-3 -1.75,-3.25 0,0 -3.75,-2.75 -4.25,-10.5 0,0 1.75,-7 -1,-7.5 0,0 -1.5,-2.5 -2.75,3.25 0,0 -3.75,6.25 -6,7.25 0,0 -1.50049,0.5 -1.75049,2.5 0,0 -2.75,2.5 -4.25,3.5 0,0 -1,0 -0.25,6 0,0 0,6.25 -1.5,6 0,0 -2.5,1.5 -2.75,-4 0,0 0.25,-1.5 -0.75,-2.25 0,0 -1.82031,-9.32032 0,-7.5 0.75,0.75 2.5,-1.5 1.75,-3.5 0,0 1.75,-12.25 -0.25,-14.75 0,0 -3,-0.5 -3.5,-18.75 0,0 -1,-7.5 -3.5,-9.25 0,0 -0.25,-1.5 1.5,-4.5 0,0 3.25,-2.75 3.25,-7 0,0 1.25,-4 3.25,-6.25 0,0 1,-6.75 0,-8.25 0,0 1,-4.25 4.25,-7 0,0 1.75,-4.25 0,-4.25 0,0 -7,0 -13.5,4 0,0 -7.25,3.75 -13.5,1.5 0,0 -20.5,-0.75 -20.75,2.5 0,0 -2.5,13 3.25,18.75 0,0 -1.5,2.25 -4,1.5 0,0 -5.25,-1.25 -12.5,-13.5 0,0 -3,-3 -3.5,2 0,0 -1,15.5 2.5,24.25 0,0 5.25,28.75 1.5,34 0,0 -1.5,1.5 -2,0 0,0 0.5,-4.75 -1.75,-5.75 0,0 -3.25,-8 -3.25,-10.75 0,0 0,-9 -4.25,-8 0,0 -2.5,1 -3,4.75 0,0 -2.25,9 -7,13.25 0,0 -3.75,1.75 -3.75,5.25 0,0 0.5,14 -3.25,16.75 0,0 -2,1.5 -2,5.25 0,0 -2.5,4.25 -2.75,1.5 0,0 2,-10.75 0.25,-11.5 0,0 -4.5,-1.25 -6.5,6 0,0 -3,7.25 -6.75,8.5 0,0 -7.5,3.5 -10.5,10.25 0,0 -3.5,-3 -2.5,-11.5 0,0 2.5,-4.5 4.75,-7.75 0,0 3.5,-2.75 2.75,-8.25 0,0 0.25,-1.75 1.25,-4.5 0,0 2,-9.5 -0.25,-10.75 0,0 -3.5,-1 -6.5,5.5 0,0 -3.25,3.5 -7.75,5.25 0,0 -3.25,1.5 -5.75,7.25 0,0 -3.5,3.75 -7.5,3.5 0,0 -4.5,1.5 -4.75,4.5 0,0 -1.5,5.5 -3,5.75 0,0 -2,1 -3,2.75 0,0 -3.25,1 -3.75,-0.25 0,0 0,-2.75 -1.75,-4 0,0 -3.75,-10 0,-18.5 0,0 5.25,-6.25 5,-20.5 0,0 0.25,-2.5 2.5,-5.75 0,0 4,-13 -0.75,-14.25 0,0 -8,3.5 -11.5,14.75 0,0 -2.5,3.25 -2.5,13 0,0 -0.75,8.25 -5.25,16 0,0 -1.5,1 -1,4.75 0,0 -2.5,1.5 -3,-0.25 0,0 -1.5,-5.25 1.5,-12.25 0,0 3.5,-10.5 2.75,-20.5 0,0 0.75,-10.5 10.25,-16.75 0,0 11.5,-9.75 10.75,-14.75 0,0 -1.25,-28 1.25,-29.5 0,0 1.75,-4.5 -2.25,-3.25 0,0 -5.25,1 -5,9 0,0 -2.25,16.75 -7.75,18.25 0,0 -11.75,5 -14.75,12.25 0,0 -1.5,1.5 -1.5,12.25 0,0 0.5,7.5 -2,8.75 0,0 -1.15625,1.1875 -1.78125,1.28125 -0.625,0.0937 -0.375,0.0937 -0.5625,-0.21875 0,0 0.0937,-0.3125 0.0937,-0.3125 0,0 0,0 0,0 z" /><path
         id="path16"
         style="fill:none;stroke:#231f20;stroke-width:1;stroke-linecap:butt;stroke-linejoin:miter;stroke-miterlimit:3.86370993;stroke-dasharray:none;stroke-opacity:1"
         d="m 123.63623,-250.71484 c 0,0 2,-22 2,-22 0,0 2.75,-8.25 8.5,-10.5 5.36523,-1.86719 9.42481,-6.12696 10.95947,-9.73633 0.10987,-0.25781 0.20703,-0.51367 0.29053,-0.76367 1.25,-3.75 1.5,-17.75 4.25,-17.25 0,0 2,-3.25 4.5,-6.25 0,0 2.75,-3 4.25,-15.75 0,0 -2,-0.75 -2,-0.75 0,0 0.30762,-4.15039 0.56055,-6.30469 0.0698,-0.5918 0.13525,-1.0332 0.18945,-1.19531 0.25,-0.75 2.25,-2.5 7,-5 0,0 1.25,-7 0.25,-8.75 0,0 -4.25,-8.5 -8,-9 0,0 -2.5,0.25 -3.75,3.25 0,0 -2.75,-1.5 -5.5,21.25 0,0 -1.5,1.5 -2.25,0.5 0,0 -1.75,-14.25 0.25,-19.75 0,0 2.25,-5.75 12.5,-13.25 0,0 1.25,-8.75 0,-9.75 0,0 -2.25,-1 -3.5,1 0,0 -6.75,8 -6.75,8 0,0 -2,1 -2,1 0,0 -0.5,4.5 -0.5,4.5 0,0 -1,3.5 -4,6.5 0,0 -6.25,8.5 -6.5,10.5 0,0 -1.75,-0.75 -1.75,-0.75 0,0 0,-5.5 0,-5.5 0,0 4.5,-7.75 7,-9.25 0,0 1.75,-3.75 0.5,-5.25 0,0 2.5,-2.25 2.5,-2.25 0,0 2.75,-5.25 5.75,-6.75 0,0 6.5,-4 6.75,-6 0,0 3.5,-5.5 3.5,-15.75049 0,0 2,-4.75 5.25,-6.75 0,0 1.25,-3.75 0.75,-8 0,0 -0.25,-2 2,-1.75 0,0 0,-7.75 0,-7.75 0,0 3.25,-7.5 9,-8.25 0,0 4,0 4.5,-3.75 0,0 1.75,-1.5 3.25,-2 0,0 2.25,-7.25 5,-8.5 0,0 0.25,-4.75 0.25,-4.75 0,0 -3.5,-0.5 -3.5,-0.5 0,0 0.75,-4 2,-4.75 0,0 1.53516,-1.70557 1.92822,-3.56738 0.083,-0.39258 0.11524,-0.79102 0.0718,-1.18262 -0.25,-2.25 3,-2.25 8.25,-4.25 0,0 1.25,-7.5 2.75,-8 0,0 5.75,-4 5.5,-5.5 0,0 0.5,-5.25 1.25,-6.5 0,0 4.75,-1 6.25,0.25 0,0 6.5,0.75 5.75,-1.25 0,0 1,-6.5 -0.75,-6.5 0,0 -1.5,-3.5 1,-5.5 0,0 7.5,-0.75 7,-2.75 0,0 1,-7 1,-7 0,0 13,-51 56.5,-50.25 0,0 12,-2.75 32.75049,7.25 0,0 5,1.5 5.5,0.25 0,0 27,-43.25 47.25,-44.75 0,0 20.5,-7.5 54.75,8.25 0,0 48.25,23.25 62.25,87.75 0,0 6,26.25 -11.5,46.5 0,0 -32.25,35 -40.25,42 0,0 -1.25,-1 -0.5,9 0,0 8.5,48.25049 -14.5,80.25049 0,0 -2,4.5 1.5,7.25 0,0 6.25,1.25 6.25,10.75 0,0 5.25,4.5 10,9.25 0,0 1.75,2.25 1,10.75 0,0 2,5.25 7.5,9.5 0,0 2.25,1.75 3.75,13 0,0 1.25,6.5 7.25,8 0,0 8.25,2.25 10.5,10 0,0 -3,2 -4,0.5 0,0 -1.5,-3.5 -5.5,-3.5 0,0 -5.25,0 -11,-3.75 0,0 -8,-7.5 -16,5.25 0,0 -1,1.75 -3.5,2.75 0,0 -3,3.25 -3.5,6.25 0,0 -0.75,3.5 -6.25,7 0,0 -4.75,2.5 -6,8.25 0,0 -1.25,5.25 -5.25,7.25 0,0 -6,0.25 -7.75,13.25 0,0 -3.25,4.5 -3.75,2.25 0,0 0,-5 -2.5,-5.75 0,0 -1,-7.5 -0.5,-10 0,0 -0.5,-3.5 -5.75,-3.75 0,0 -5.75,-4.25 -5.75,-8.75 0,0 -1.5,-2.5 -2.75,1.25 0,0 -2,6.75 -6.75,9 0,0 -3.75,2.75 -3.75,7 0,0 -2.25,5.25 -6,7.75 0,0 -3.75,0.75 -3.75,4.25 0,0 -3.25,1.75 -3,-0.25 0,0 -1,-4 0.75,-5.5 0,0 2,-3.25 0,-7 0,0 -4.75,-3 -5.5,-11 0,0 0.75,-4 -3.75,-1.25 0,0 -2.25,1.5 -3,4 0,0 -2.75,4.5 -7,6.5 0,0 -3.25,2.25 -3.75,6.5 0,0 -3.75,6.25 -6,6.25 0,0 -1,0.5 -2.5,1.75 0,0 -3.25,1 -2.5,-3.75 0,0 1.07422,-5.68946 1.75,-4 0.5,1.25 0,-4.75 1.5,-5.5 0,0 0,-3 -1.75,-3.25 0,0 -3.75,-2.75 -4.25,-10.5 0,0 1.75,-7 -1,-7.5 0,0 -1.5,-2.5 -2.75,3.25 0,0 -3.75,6.25 -6,7.25 0,0 -1.50049,0.5 -1.75049,2.5 0,0 -2.75,2.5 -4.25,3.5 0,0 -1,0 -0.25,6 0,0 0,6.25 -1.5,6 0,0 -2.5,1.5 -2.75,-4 0,0 0.25,-1.5 -0.75,-2.25 0,0 -1.82031,-9.32032 0,-7.5 0.75,0.75 2.5,-1.5 1.75,-3.5 0,0 1.75,-12.25 -0.25,-14.75 0,0 -3,-0.5 -3.5,-18.75 0,0 -1,-7.5 -3.5,-9.25 0,0 -0.25,-1.5 1.5,-4.5 0,0 3.25,-2.75 3.25,-7 0,0 1.25,-4 3.25,-6.25 0,0 1,-6.75 0,-8.25 0,0 1,-4.25 4.25,-7 0,0 1.75,-4.25 0,-4.25 0,0 -7,0 -13.5,4 0,0 -7.25,3.75 -13.5,1.5 0,0 -20.5,-0.75 -20.75,2.5 0,0 -2.5,13 3.25,18.75 0,0 -1.5,2.25 -4,1.5 0,0 -5.25,-1.25 -12.5,-13.5 0,0 -3,-3 -3.5,2 0,0 -1,15.5 2.5,24.25 0,0 5.25,28.75 1.5,34 0,0 -1.5,1.5 -2,0 0,0 0.5,-4.75 -1.75,-5.75 0,0 -3.25,-8 -3.25,-10.75 0,0 0,-9 -4.25,-8 0,0 -2.5,1 -3,4.75 0,0 -2.25,9 -7,13.25 0,0 -3.75,1.75 -3.75,5.25 0,0 0.5,14 -3.25,16.75 0,0 -2,1.5 -2,5.25 0,0 -2.5,4.25 -2.75,1.5 0,0 2,-10.75 0.25,-11.5 0,0 -4.5,-1.25 -6.5,6 0,0 -3,7.25 -6.75,8.5 0,0 -7.5,3.5 -10.5,10.25 0,0 -3.5,-3 -2.5,-11.5 0,0 2.5,-4.5 4.75,-7.75 0,0 3.5,-2.75 2.75,-8.25 0,0 0.25,-1.75 1.25,-4.5 0,0 2,-9.5 -0.25,-10.75 0,0 -3.5,-1 -6.5,5.5 0,0 -3.25,3.5 -7.75,5.25 0,0 -3.25,1.5 -5.75,7.25 0,0 -3.5,3.75 -7.5,3.5 0,0 -4.5,1.5 -4.75,4.5 0,0 -1.5,5.5 -3,5.75 0,0 -2,1 -3,2.75 0,0 -3.25,1 -3.75,-0.25 0,0 0,-2.75 -1.75,-4 0,0 -3.75,-10 0,-18.5 0,0 5.25,-6.25 5,-20.5 0,0 0.25,-2.5 2.5,-5.75 0,0 4,-13 -0.75,-14.25 0,0 -8,3.5 -11.5,14.75 0,0 -2.5,3.25 -2.5,13 0,0 -0.75,8.25 -5.25,16 0,0 -1.5,1 -1,4.75 0,0 -2.5,1.5 -3,-0.25 0,0 -1.5,-5.25 1.5,-12.25 0,0 3.5,-10.5 2.75,-20.5 0,0 0.75,-10.5 10.25,-16.75 0,0 11.5,-9.75 10.75,-14.75 0,0 -1.25,-28 1.25,-29.5 0,0 1.75,-4.5 -2.25,-3.25 0,0 -5.25,1 -5,9 0,0 -2.25,16.75 -7.75,18.25 0,0 -11.75,5 -14.75,12.25 0,0 -1.5,1.5 -1.5,12.25 0,0 0.5,7.5 -2,8.75 0,0 -1.15625,1.1875 -1.78125,1.28125 -0.625,0.0937 -0.375,0.0937 -0.5625,-0.21875 0,0 0.0937,-0.3125 0.0937,-0.3125 0,0 0,0 0,0 z" /><path
         id="path18"
         style="fill:#ffffff;fill-opacity:1;fill-rule:nonzero;stroke:none"
         d="m 221.38623,-379.71484 c 0,0 9.75,-3.875 9.75,-3.875 0,0 2.625,-14.87549 10.75,-18.87549 0,0 11,-6.875 13.625,-10.875 0,0 2.125,-8.125 10.5,-11.125 0,0 5.625,-2.875 8.5,-6.75 0,0 4.5,-8.375 8.625,-7.75 0,0 3.5,-0.625 2.75,12.25 0,0 -0.75,1.25 3.25,3.25 0,0 2.625,1 3.875,9 0,0 0.5,2.375 2,3.625 0,0 1.75,6 -4,7.5 0,0 -2.125,1.125 -7.875,-4.75 0,0 -1.75,-2.5 -6.5,-1.5 0,0 -3.875,1.125 -9.75,-7.375 0,0 -4.375,-2.875 -5.375,0.75 0,0 0.25,1.625 -1.125,1.75 0,0 -1,4.25 2.5,6.25 0,0 6.25,2.625 7,7.25 0,0 2.125,2.25 8.375,1.75 0,0 1.25,-0.375 3.125,2.375 0,0 2.625,1.75 5.375,1.375 0,0 0.25,0.87549 1.125,1.50049 0,0 5.875,0.5 7.875,-1.50049 0,0 2.875,-2.125 5.5,-11.875 0,0 -0.75,-2.875 7.00049,0.625 0,0 5.5,2.5 8.5,21.50049 0,0 0.25,3.625 3.125,6.125 0,0 0.75,3.125 -1.5,7.375 0,0 -8.375,14.125 -17.37549,19.375 0,0 -5,2.375 -6.5,4.25 0,0 -4,4.125 -4.875,5.875 0,0 -4.5,6.75 -9,8 -4.5,1.25 -9.125,1.625 -10.625,1.625 0,0 -1.25,0.75 -1.875,1.125 0,0 -9.125,0.375 -11,0 0,0 -0.375,-3.375 1.375,-3.875 0,0 3.25,-2.25 3.125,-3.5 -0.125,-1.25 -1.625,-2.625 -3.5,-2.5 0,0 -13.5,-2 -21.375,-11.125 0,0 -1.5,-3 -2.125,0.375 0,0 -0.5,3.25 0,5.625 0,0 -2,1.5 -4.25,-2.25 0,0 -0.5,-3 -2.5,-3 0,0 0,-10.5 1,-13.25 0,0 0,-11.5 11.25,-12 0,0 2.25,-0.5 3.75,4.5 0,0 0.5,2.25 6.5,3.75 0,0 9.75,3 14,8.25 0,0 4.25,1.25 11.75,-0.75 0,0 2,-1.5 4,-1 0,0 1,-2.75 -5.25,-5.5 0,0 -22,-4.75 -26,-11 0,0 -1.25,-2.25 3.25,-4 0,0 2.25,-0.75 2.5,-1.75 0,0 2.5,-2.25 14,4.25 0,0 12.25,8.5 15.25,14 0,0 5,1.75 5.25,-2.25 0,0 -8,-11.5 -11,-13 0,0 -1.25,-1.75 -2.25,-3 0,0 -2,-4.5 -6.5,-5.5 0,0 -6.75,-2.5 -8.5,-4.5 0,0 -5,-0.75049 -6.5,-1.50049 0,0 -4,-1 -12.5,1.00049 0,0 -5.75,3 0.5,5.75 0,0 1.75,2.75 7.5,-0.5 0,0 4,-1.75 3.5,1.75 0,0 -1.5,2 -1.5,2 0,0 -33.5,15.75 -33.5,15.75 0,0 -5.75,-1.25 -6.5,-4.25 0,0 -0.5,-2.25 2.25,-3 0,0 7.25,-2.25 7.25,-2.25 0,0 0,0 0,0 z" /><path
         id="path20"
         style="fill:none;stroke:#231f20;stroke-width:1;stroke-linecap:butt;stroke-linejoin:miter;stroke-miterlimit:3.86370993;stroke-dasharray:none;stroke-opacity:1"
         d="m 221.38623,-379.71484 c 0,0 9.75,-3.875 9.75,-3.875 0,0 2.625,-14.87549 10.75,-18.87549 0,0 11,-6.875 13.625,-10.875 0,0 2.125,-8.125 10.5,-11.125 0,0 5.625,-2.875 8.5,-6.75 0,0 4.5,-8.375 8.625,-7.75 0,0 3.5,-0.625 2.75,12.25 0,0 -0.75,1.25 3.25,3.25 0,0 2.625,1 3.875,9 0,0 0.5,2.375 2,3.625 0,0 1.75,6 -4,7.5 0,0 -2.125,1.125 -7.875,-4.75 0,0 -1.75,-2.5 -6.5,-1.5 0,0 -3.875,1.125 -9.75,-7.375 0,0 -4.375,-2.875 -5.375,0.75 0,0 0.25,1.625 -1.125,1.75 0,0 -1,4.25 2.5,6.25 0,0 6.25,2.625 7,7.25 0,0 2.125,2.25 8.375,1.75 0,0 1.25,-0.375 3.125,2.375 0,0 2.625,1.75 5.375,1.375 0,0 0.25,0.87549 1.125,1.50049 0,0 5.875,0.5 7.875,-1.50049 0,0 2.875,-2.125 5.5,-11.875 0,0 -0.75,-2.875 7.00049,0.625 0,0 5.5,2.5 8.5,21.50049 0,0 0.25,3.625 3.125,6.125 0,0 0.75,3.125 -1.5,7.375 0,0 -8.375,14.125 -17.37549,19.375 0,0 -5,2.375 -6.5,4.25 0,0 -4,4.125 -4.875,5.875 0,0 -4.5,6.75 -9,8 -4.5,1.25 -9.125,1.625 -10.625,1.625 0,0 -1.25,0.75 -1.875,1.125 0,0 -9.125,0.375 -11,0 0,0 -0.375,-3.375 1.375,-3.875 0,0 3.25,-2.25 3.125,-3.5 -0.125,-1.25 -1.625,-2.625 -3.5,-2.5 0,0 -13.5,-2 -21.375,-11.125 0,0 -1.5,-3 -2.125,0.375 0,0 -0.5,3.25 0,5.625 0,0 -2,1.5 -4.25,-2.25 0,0 -0.5,-3 -2.5,-3 0,0 0,-10.5 1,-13.25 0,0 0,-11.5 11.25,-12 0,0 2.25,-0.5 3.75,4.5 0,0 0.5,2.25 6.5,3.75 0,0 9.75,3 14,8.25 0,0 4.25,1.25 11.75,-0.75 0,0 2,-1.5 4,-1 0,0 1,-2.75 -5.25,-5.5 0,0 -22,-4.75 -26,-11 0,0 -1.25,-2.25 3.25,-4 0,0 2.25,-0.75 2.5,-1.75 0,0 2.5,-2.25 14,4.25 0,0 12.25,8.5 15.25,14 0,0 5,1.75 5.25,-2.25 0,0 -8,-11.5 -11,-13 0,0 -1.25,-1.75 -2.25,-3 0,0 -2,-4.5 -6.5,-5.5 0,0 -6.75,-2.5 -8.5,-4.5 0,0 -5,-0.75049 -6.5,-1.50049 0,0 -4,-1 -12.5,1.00049 0,0 -5.75,3 0.5,5.75 0,0 1.75,2.75 7.5,-0.5 0,0 4,-1.75 3.5,1.75 0,0 -1.5,2 -1.5,2 0,0 -33.5,15.75 -33.5,15.75 0,0 -5.75,-1.25 -6.5,-4.25 0,0 -0.5,-2.25 2.25,-3 0,0 7.25,-2.25 7.25,-2.25 0,0 0,0 0,0 z" /></g></g></svg>